<svg xmlns="http://www.w3.org/2000/svg" width="48" height="48" viewBox="0 0 48 48"><path d="M 24 0 C 10.75108 0 -1.1e-005 10.7511 0 24 C 0 37.2489 10.751088 48 24 48 C 37.248912 48 48 37.2489 48 24 C 48.000011 10.7511 37.24892 0 24 0 z M 24 1 C 36.708479 1 47.000011 11.2915 47 24 C 47 36.7085 36.708472 47 24 47 C 11.291528 47 1 36.7085 1 24 C 0.999989 11.2915 11.291521 1 24 1 z M 24.5 7 L 9 13 L 9 15 L 10 15 L 10 17 L 12 17 L 12 34 L 10 34 L 10 36 L 9 36 L 9 38 L 40 38 L 40 36 L 39 36 L 39 34 L 37 34 L 37 17 L 39 17 L 39 15 L 40 15 L 40 13 L 24.5 7 z M 14 17 L 17 17 L 17 34 L 14 34 L 14 17 z M 19 17 L 30 17 L 30 34 L 19 34 L 19 17 z M 32 17 L 35 17 L 35 34 L 32 34 L 32 17 z " color="#000" overflow="visible" style="isolation:auto;mix-blend-mode:normal"/></svg>