<svg xmlns="http://www.w3.org/2000/svg" enable-background="new 0 0 64 64" viewBox="0 0 64 64"><path d="M43.7,36.4h8.4c4.5,0,8.1-3.6,8.1-8.1c0-2.2-0.8-4.2-2.4-5.7c-1.3-1.3-3-2.1-4.8-2.3c-0.2-1.5-0.9-2.9-2-4c-1.3-1.3-3.1-2-4.9-2c-1,0-1.9,0.2-2.8,0.6c-1.5-4.2-5.4-7-9.9-7c-4.3,0-8.1,2.6-9.7,6.4c-1.7-1.2-3.8-1.9-6-1.9c-5.8,0-10.5,4.7-10.5,10.5c0,0.6,0.1,1.3,0.2,1.9C3.2,25.2,0,28.7,0,32.9c0,2.2,0.8,4.2,2.4,5.7C3.9,40.1,5.9,41,8.1,41h28.3C39.6,41,42.4,39.1,43.7,36.4z M33.4,9.8c4,0,7.5,2.7,8.4,6.7c0.1,0.3,0.3,0.6,0.6,0.7c0.3,0.1,0.6,0.1,0.9-0.1c0.8-0.6,1.8-0.9,2.8-0.9c1.3,0,2.6,0.5,3.5,1.5c0.9,0.9,1.5,2.2,1.5,3.5c0,0.5,0.4,1,1,1c1.6,0,3.2,0.6,4.4,1.8c1.2,1.2,1.8,2.7,1.8,4.4c0,3.4-2.8,6.2-6.2,6.2h-7.8c0.1-0.5,0.2-1.1,0.2-1.6c0-2.2-0.8-4.2-2.4-5.7c-1.3-1.3-3-2.1-4.8-2.3c-0.5-3.4-3.4-6-6.9-6c-1,0-1.9,0.2-2.8,0.6c-0.5-1.4-1.3-2.7-2.4-3.8C26.5,12.1,29.7,9.8,33.4,9.8z M36.4,39.1H8.1c-1.6,0-3.2-0.6-4.4-1.8c-1.2-1.2-1.8-2.7-1.8-4.4c0-3.4,2.8-6.2,6.2-6.2h0.5c0.3,0,0.6-0.1,0.8-0.4c0.2-0.2,0.2-0.6,0.1-0.9c-0.2-0.8-0.4-1.7-0.4-2.5c0-4.7,3.9-8.6,8.6-8.6c4,0,7.5,2.8,8.4,6.7c0.1,0.3,0.3,0.6,0.6,0.7c0.3,0.1,0.6,0.1,0.9-0.1c0.8-0.6,1.8-0.9,2.8-0.9c2.8,0,5,2.2,5,5c0,0.5,0.4,1,1,1c1.6,0,3.2,0.6,4.4,1.8c1.2,1.2,1.8,2.7,1.8,4.4C42.6,36.3,39.8,39.1,36.4,39.1z"/><path d="M62.5,47.4c-0.8-0.8-1.7-1.3-2.8-1.4c-0.4-2-2.2-3.6-4.4-3.6c-0.5,0-1,0.1-1.4,0.2c-1-2.4-3.4-4-6-4c-3.6,0-6.6,2.9-6.6,6.6c0,0.3,0,0.5,0,0.8c-2.4,0.4-4.2,2.5-4.2,5.1c0,1.4,0.5,2.7,1.5,3.6c1,1,2.3,1.5,3.6,1.5h16.6c2.8,0,5.1-2.3,5.1-5.1C64,49.7,63.5,48.4,62.5,47.4z M58.9,54.2H42.3c-0.9,0-1.7-0.3-2.3-0.9c-0.6-0.6-0.9-1.4-0.9-2.3c0-1.8,1.4-3.2,3.2-3.2h0.3c0.3,0,0.6-0.1,0.8-0.4c0.2-0.2,0.2-0.6,0.1-0.9c-0.1-0.4-0.2-0.9-0.2-1.4c0-2.6,2.1-4.6,4.6-4.6c2.1,0,4,1.5,4.5,3.6c0.1,0.3,0.3,0.6,0.6,0.7c0.3,0.1,0.6,0.1,0.9-0.1c0.4-0.3,0.9-0.4,1.4-0.4c1.4,0,2.5,1.1,2.5,2.5c0,0.5,0.4,1,1,1c0.9,0,1.7,0.3,2.3,0.9c0.6,0.6,0.9,1.4,0.9,2.3C62.1,52.8,60.6,54.2,58.9,54.2z"/></svg>