<svg xmlns="http://www.w3.org/2000/svg" viewBox="0 0 64 64"><path d="M55,32H46.24a8,8,0,1,0-12.48,0H25.74A8.242,8.242,0,0,0,26,30a8,8,0,0,0-16,0,8.242,8.242,0,0,0,.26,2H9a3.009,3.009,0,0,0-3,3V59a3.009,3.009,0,0,0,3,3H55a3.009,3.009,0,0,0,3-3V35A3.009,3.009,0,0,0,55,32ZM40,21a6,6,0,1,1-6,6A6,6,0,0,1,40,21ZM18,24a6,6,0,1,1-6,6A6,6,0,0,1,18,24ZM56,52H51a5,5,0,0,1,0-10h5Zm0-12H51a7,7,0,0,0,0,14h5v5a1,1,0,0,1-1,1H9a1,1,0,0,1-1-1V35a1,1,0,0,1,1-1h2.08a8.155,8.155,0,0,0,1.65,2H10v2H53V36H23.27a8.155,8.155,0,0,0,1.65-2H36.14a7.95,7.95,0,0,0,7.72,0H55a1,1,0,0,1,1,1Z"/><path d="M48 47a3 3 0 1 0 3-3A3 3 0 0 0 48 47zm4 0a1 1 0 1 1-1-1A1 1 0 0 1 52 47zM18.5 32h-1a.5.5 0 0 1-.5-.5H15a2.5 2.5 0 0 0 2 2.449V35h2V33.949A2.5 2.5 0 0 0 18.5 29h-1a.5.5 0 0 1 0-1h1a.5.5 0 0 1 .5.5h2a2.5 2.5 0 0 0-2-2.449V25H17v1.051A2.5 2.5 0 0 0 17.5 31h1a.5.5 0 0 1 0 1zM48.5 12h-1a.5.5 0 0 1-.5-.5H45a2.5 2.5 0 0 0 2 2.449V15h2V13.949A2.5 2.5 0 0 0 48.5 9h-1a.5.5 0 0 1 0-1h1a.5.5 0 0 1 .5.5h2a2.5 2.5 0 0 0-2-2.449V5H47V6.051A2.5 2.5 0 0 0 47.5 11h1a.5.5 0 0 1 0 1z"/><path d="M48 18a8 8 0 1 0-8-8A8.009 8.009 0 0 0 48 18zM48 4a6 6 0 1 1-6 6A6.006 6.006 0 0 1 48 4zM40.5 29h-1a.5.5 0 0 1-.5-.5H37a2.5 2.5 0 0 0 2 2.449V32h2V30.949A2.5 2.5 0 0 0 40.5 26h-1a.5.5 0 0 1 0-1h1a.5.5 0 0 1 .5.5h2a2.5 2.5 0 0 0-2-2.449V22H39v1.051A2.5 2.5 0 0 0 39.5 28h1a.5.5 0 0 1 0 1zM27.5 17h-1a.5.5 0 0 1-.5-.5H24a2.5 2.5 0 0 0 2 2.449V20h2V18.949A2.5 2.5 0 0 0 27.5 14h-1a.5.5 0 0 1 0-1h1a.5.5 0 0 1 .5.5h2a2.5 2.5 0 0 0-2-2.449V10H26v1.051A2.5 2.5 0 0 0 26.5 16h1a.5.5 0 0 1 0 1z"/><path d="M27,23a8,8,0,1,0-8-8A8.009,8.009,0,0,0,27,23ZM27,9a6,6,0,1,1-6,6A6.006,6.006,0,0,1,27,9Z"/></svg>