<svg xmlns="http://www.w3.org/2000/svg" data-name="Layer 1" viewBox="0 0 32 32"><path d="M25.5,15.5h-2a.5.5,0,0,0,0,1h1v1a.5.5,0,0,0,1,0v-1A1.5,1.5,0,0,0,27,15V14a1.5,1.5,0,0,0-1.5-1.5h-1A.5.5,0,0,1,24,12V11a.5.5,0,0,1,.5-.5h2a.5.5,0,0,0,0-1h-1v-1a.5.5,0,0,0-1,0v1A1.5,1.5,0,0,0,23,11v1a1.5,1.5,0,0,0,1.5,1.5h1a.5.5,0,0,1,.5.5v1A.5.5,0,0,1,25.5,15.5Zm4.76,7.6L20,23.957V22.732a3.478,3.478,0,0,0-2.495-3.353L9.942,17.111A1.5,1.5,0,0,0,8.5,16H.5a.5.5,0,0,0-.5.5v11a.5.5,0,0,0,.5.5h8a1.5,1.5,0,0,0,1.357-.871l7.983,2.395a5.474,5.474,0,0,0,3.319-.05L30.9,26.227A1.607,1.607,0,0,0,30.26,23.1ZM6,27H1V17H6Zm3-.5a.5.5,0,0,1-.5.5H7V17H8.5a.5.5,0,0,1,.5.5Zm21.585-1.223-9.742,3.247a4.477,4.477,0,0,1-2.716.042L10,26.128V18.172l7.218,2.165A2.487,2.487,0,0,1,19,22.732v1.029l-4.314-1.726a.5.5,0,1,0-.371.928l5,2,.013,0a.5.5,0,0,0,.074.014.509.509,0,0,0,.1.019c.006,0,.011,0,.017-.005s.016,0,.025,0l10.8-.9a.606.606,0,0,1,.242,1.18ZM25,20a7,7,0,1,0-7-7A7.008,7.008,0,0,0,25,20ZM25,7a6,6,0,1,1-6,6A6.007,6.007,0,0,1,25,7Z"/></svg>