<svg xmlns="http://www.w3.org/2000/svg" viewBox="0 0 48 48"><path d="M38.85 26.5a3.59 3.59 0 0 0-4.33-.59A3.63 3.63 0 0 0 28.72 24a3.6 3.6 0 0 0-4.62-1.18V17A3.54 3.54 0 0 0 23 14.45 3.65 3.65 0 0 0 16.82 17v16a11.55 11.55 0 0 0 23 1.27c.15-.85 0-3.23.08-4.12C40 28.89 39.89 27.41 38.85 26.5zm-10.43 16a9.47 9.47 0 0 1-9.58-8.9c0-.38 0-3 0-3.45V17a1.64 1.64 0 0 1 2.8-1.15A1.59 1.59 0 0 1 22.1 17V31.08a1 1 0 0 0 2 0v-5a1.64 1.64 0 0 1 3.27 0v.75s0 4.34 0 4.36a1 1 0 0 0 2 0V26.8a1.64 1.64 0 0 1 3.28 0v4.34a1 1 0 0 0 2 0V29.07a1.64 1.64 0 0 1 2.8-1.15c.62.51.46 1.57.48 2.28v2.85A9.5 9.5 0 0 1 28.42 42.55zM18.3 9.76A1 1 0 0 0 17 9.16a7.12 7.12 0 0 0-4.65 6.66 1 1 0 0 0 2 0A5.1 5.1 0 0 1 17.71 11 1 1 0 0 0 18.3 9.76zM23.71 9.16A1 1 0 0 0 23 11a5.1 5.1 0 0 1 3.34 4.78 1 1 0 0 0 2 0A7.12 7.12 0 0 0 23.71 9.16z"/><path d="M10.07,15.83c.57-13.77,20.2-13.77,20.77,0A10.51,10.51,0,0,1,30,20a1,1,0,1,0,1.83.8A12.39,12.39,0,0,0,20.46,3.45c-8.76-.18-15,9.45-11.33,17.38a1,1,0,0,0,1.31.51A1,1,0,0,0,11,20,10.35,10.35,0,0,1,10.07,15.83Z"/></svg>